<?xml version="1.0" encoding="UTF-8"?>
<svg xmlns="http://www.w3.org/2000/svg" xmlns:xlink="http://www.w3.org/1999/xlink" width="2585" height="3654" viewBox="0 0 2585 3654">
<path fill-rule="nonzero" fill="rgb(100%, 70.117188%, 50.193787%)" fill-opacity="1" d="M 1618.171875 303.46875 C 1622.21875 375.46875 1612.769531 468.621094 1678.019531 499.671875 C 1728.421875 523.070312 1745.519531 584.71875 1757.21875 638.71875 C 1777.921875 736.371094 1798.621094 834.019531 1819.320312 931.671875 C 1919.671875 834.019531 2074.921875 796.671875 2208.570312 837.621094 C 2341.769531 878.121094 2447.96875 987.019531 2584.320312 1015.820312 C 2330.96875 1229.570312 2396.671875 1667.421875 2158.171875 1897.820312 C 2085.71875 1968.019531 2130.71875 2088.621094 2179.320312 2176.820312 C 2302.171875 2198.421875 2348.070312 2354.121094 2334.121094 2477.871094 C 2325.121094 2558.421875 2305.320312 2651.570312 2360.21875 2711.421875 C 2464.171875 2824.820312 2474.96875 3005.269531 2406.121094 3142.070312 C 2336.820312 3279.320312 2199.570312 3373.820312 2051.519531 3415.21875 C 1969.621094 3437.71875 1861.621094 3472.371094 1866.570312 3556.96875 C 1870.621094 3628.96875 1775.21875 3669.019531 1705.921875 3647.421875 C 1637.070312 3626.269531 1585.769531 3570.019531 1524.121094 3531.769531 C 1421.070312 3467.871094 1285.621094 3459.320312 1175.371094 3509.269531 C 1119.570312 3534.46875 1070.519531 3573.171875 1013.371094 3594.320312 C 956.21875 3615.019531 883.769531 3613.671875 843.71875 3567.769531 C 799.617188 3517.371094 791.066406 3417.46875 724.019531 3419.269531 C 540.417969 3424.671875 348.71875 3351.320312 242.519531 3201.921875 C 136.316406 3052.519531 139.019531 2824.371094 271.769531 2697.921875 C 290.667969 2680.371094 291.566406 2651.121094 290.667969 2625.019531 C 288.867188 2540.871094 287.066406 2456.71875 284.816406 2372.570312 C 283.917969 2321.269531 303.71875 2250.171875 354.117188 2258.269531 C 332.519531 2220.921875 380.667969 2168.71875 419.367188 2187.171875 C 459.867188 2120.121094 496.769531 2024.269531 438.269531 1972.96875 C 173.667969 1741.671875 282.566406 1247.570312 0.867188 1037.421875 C 107.519531 984.769531 213.71875 932.121094 320.367188 879.46875 C 372.566406 853.820312 426.566406 827.269531 485.066406 821.871094 C 584.519531 812.871094 677.667969 866.421875 763.617188 917.71875 C 791.96875 806.121094 820.769531 694.96875 849.566406 583.371094 C 854.96875 563.121094 860.367188 541.96875 875.21875 526.671875 C 891.867188 509.121094 917.066406 503.269531 936.417969 488.421875 C 986.816406 449.71875 975.117188 373.21875 977.367188 309.320312 C 983.21875 146.421875 1131.71875 1.96875 1295.070312 0.621094 C 1457.96875 -1.179688 1609.171875 140.570312 1618.171875 303.46875 M 1085.820312 157.21875 C 1095.269531 172.070312 1120.46875 170.71875 1131.269531 156.769531 C 1142.070312 142.820312 1138.921875 121.21875 1127.21875 108.171875 C 1115.519531 105.46875 1102.921875 112.671875 1095.71875 122.570312 C 1088.96875 132.46875 1086.269531 145.070312 1083.570312 156.769531 C 1076.371094 152.71875 1067.820312 159.019531 1061.519531 164.421875 C 1051.621094 173.871094 1040.820312 184.671875 1039.019531 198.171875 C 1037.21875 212.121094 1050.269531 227.871094 1063.320312 222.921875 C 1085.820312 210.769531 1096.171875 180.171875 1085.820312 157.21875 M 1367.070312 2955.320312 C 1384.171875 2914.820312 1351.769531 2871.171875 1321.621094 2838.769531 C 1300.019531 2862.171875 1277.519531 2888.71875 1275.71875 2920.21875 C 1274.371094 2952.171875 1307.21875 2985.46875 1336.019531 2971.519531 C 1363.019531 2958.019531 1394.96875 2961.621094 1425.570312 2963.871094 C 1487.671875 2967.921875 1550.671875 2963.421875 1611.871094 2950.371094 C 1663.171875 2939.570312 1714.019531 2922.019531 1756.320312 2890.96875 C 1798.621094 2859.921875 1831.921875 2814.019531 1839.121094 2761.820312 C 1823.820312 2762.71875 1815.269531 2779.371094 1808.519531 2792.871094 C 1777.921875 2854.070312 1717.621094 2896.371094 1652.820312 2917.519531 C 1588.46875 2938.671875 1519.171875 2940.921875 1450.769531 2938.671875 C 1421.519531 2937.769531 1389.570312 2936.871094 1367.070312 2955.320312 M 971.96875 1885.671875 C 933.71875 1861.820312 895.46875 1837.96875 857.21875 1814.121094 C 827.066406 1844.269531 780.71875 1849.671875 740.21875 1863.171875 C 659.667969 1890.621094 593.066406 1957.21875 566.519531 2038.21875 C 539.519531 2119.21875 553.019531 2212.371094 601.617188 2282.121094 C 580.019531 2294.269531 568.769531 2322.171875 576.417969 2345.570312 C 588.566406 2350.070312 601.617188 2338.820312 604.769531 2326.671875 C 607.46875 2314.070312 602.96875 2301.019531 598.917969 2288.871094 C 622.316406 2301.46875 624.566406 2333.871094 625.46875 2360.871094 C 626.816406 2386.519531 630.867188 2414.871094 651.117188 2430.621094 C 671.367188 2446.371094 710.519531 2434.21875 707.816406 2408.570312 C 701.519531 2350.070312 699.71875 2290.671875 703.316406 2231.71875 C 706.019531 2185.820312 714.566406 2134.070312 751.917969 2107.070312 C 760.019531 2130.46875 768.566406 2153.871094 776.667969 2177.71875 C 750.117188 2265.019531 795.566406 2368.519531 877.917969 2408.121094 C 960.269531 2447.71875 1069.621094 2418.46875 1121.371094 2342.871094 C 1133.519531 2324.871094 1142.96875 2304.171875 1144.769531 2282.570312 C 1146.121094 2261.421875 1140.269531 2240.269531 1134.871094 2220.019531 C 1109.21875 2127.769531 1083.570312 2035.519531 1058.371094 1942.820312 C 1030.921875 1966.671875 1000.769531 1991.421875 964.769531 1993.21875 C 928.769531 1995.46875 889.167969 1962.621094 899.96875 1927.96875 C 908.519531 1899.621094 942.71875 1888.820312 971.96875 1885.671875 M 1713.570312 1357.820312 C 1699.621094 1402.820312 1682.070312 1449.171875 1646.519531 1480.21875 C 1610.96875 1511.269531 1552.921875 1521.171875 1516.921875 1490.570312 C 1517.820312 1508.570312 1510.171875 1527.019531 1496.671875 1539.171875 C 1490.820312 1490.570312 1484.519531 1440.621094 1493.519531 1392.46875 C 1502.519531 1343.871094 1529.519531 1296.621094 1574.070312 1275.019531 C 1618.171875 1253.421875 1679.820312 1266.46875 1702.320312 1310.570312 C 1669.46875 1280.871094 1617.71875 1274.570312 1579.019531 1295.71875 C 1540.320312 1316.871094 1517.820312 1364.121094 1525.019531 1407.320312 C 1546.621094 1336.21875 1637.96875 1295.71875 1705.019531 1327.671875 C 1719.871094 1306.96875 1725.269531 1279.96875 1719.421875 1255.671875 C 1708.171875 1189.96875 1696.921875 1124.71875 1685.671875 1059.46875 C 1678.019531 1014.921875 1643.371094 978.46875 1603.320312 957.320312 C 1563.269531 935.71875 1517.820312 927.171875 1473.269531 919.070312 C 1470.570312 1004.121094 1390.46875 1078.371094 1305.421875 1075.671875 C 1220.371094 1072.519531 1145.671875 992.421875 1148.371094 907.371094 C 1066.46875 919.519531 975.117188 937.519531 927.867188 1005.46875 C 891.417969 1058.121094 891.867188 1126.519531 895.019531 1189.96875 C 919.769531 1151.269531 967.019531 1128.320312 1012.921875 1131.921875 C 1058.820312 1135.519531 1101.121094 1165.21875 1120.921875 1206.621094 C 1126.320312 1217.421875 1129.921875 1229.570312 1128.570312 1241.269531 C 1105.171875 1220.570312 1081.769531 1199.871094 1058.371094 1179.171875 C 1044.421875 1167.019531 1029.121094 1153.96875 1010.671875 1151.269531 C 994.917969 1149.46875 979.167969 1155.320312 964.769531 1162.519531 C 934.167969 1178.269531 905.367188 1200.769531 889.617188 1231.371094 C 873.867188 1261.96875 872.96875 1301.570312 893.21875 1329.46875 C 957.566406 1302.019531 1041.71875 1337.121094 1066.921875 1402.820312 C 1072.320312 1362.320312 1050.269531 1319.121094 1013.820312 1300.21875 C 977.816406 1280.871094 929.667969 1286.269531 899.066406 1313.71875 C 913.917969 1270.96875 971.96875 1255.671875 1013.371094 1274.570312 C 1054.320312 1293.46875 1079.519531 1335.769531 1093.46875 1378.96875 C 1109.21875 1428.46875 1113.269531 1481.570312 1105.171875 1532.421875 C 1091.671875 1517.570312 1084.019531 1497.769531 1083.121094 1477.96875 C 1057.46875 1521.171875 989.96875 1523.871094 949.46875 1493.269531 C 908.96875 1463.121094 890.519531 1411.371094 882.417969 1361.421875 C 881.519531 1413.171875 881.066406 1464.921875 880.617188 1516.671875 C 880.167969 1543.21875 880.167969 1570.21875 883.769531 1596.320312 C 894.566406 1675.96875 943.617188 1749.320312 1012.46875 1790.71875 C 1016.070312 1744.820312 1033.621094 1700.269531 1062.871094 1664.71875 C 1060.171875 1743.921875 1030.921875 1822.21875 980.96875 1884.320312 C 984.566406 1921.21875 1041.71875 1928.421875 1066.921875 1901.421875 C 1092.121094 1874.421875 1091.671875 1833.019531 1085.820312 1796.570312 C 1080.421875 1760.121094 1071.421875 1721.871094 1084.019531 1687.21875 C 1111.019531 1740.320312 1123.171875 1800.621094 1119.121094 1860.019531 C 1112.820312 1950.46875 1132.621094 2040.921875 1161.421875 2126.871094 C 1198.320312 2236.21875 1251.871094 2343.320312 1337.371094 2421.171875 C 1422.421875 2499.019531 1544.371094 2543.570312 1656.421875 2515.671875 C 1703.21875 2503.96875 1747.769531 2479.21875 1777.46875 2441.421875 C 1807.621094 2403.621094 1821.121094 2351.421875 1807.621094 2305.070312 C 1804.46875 2294.269531 1799.519531 2283.46875 1790.96875 2276.269531 C 1764.421875 2255.121094 1723.46875 2281.671875 1711.769531 2313.621094 C 1699.621094 2345.570312 1703.671875 2381.570312 1691.070312 2413.519531 C 1682.96875 2386.519531 1674.871094 2359.96875 1666.769531 2332.96875 C 1643.371094 2362.21875 1628.96875 2398.671875 1626.269531 2436.46875 C 1612.769531 2405.871094 1612.769531 2369.421875 1626.269531 2338.820312 C 1611.421875 2324.421875 1586.671875 2341.96875 1579.921875 2361.320312 C 1572.71875 2380.671875 1571.371094 2404.070312 1555.171875 2416.671875 C 1552.921875 2382.46875 1559.21875 2347.820312 1572.71875 2316.320312 C 1552.921875 2304.621094 1528.621094 2323.96875 1516.46875 2343.769531 C 1503.871094 2363.570312 1491.269531 2387.871094 1468.320312 2390.570312 C 1491.269531 2358.171875 1506.121094 2319.921875 1512.421875 2280.320312 C 1471.921875 2296.519531 1435.921875 2323.96875 1410.269531 2359.070312 C 1418.820312 2322.171875 1442.21875 2289.320312 1474.621094 2269.96875 C 1484.96875 2263.21875 1477.769531 2244.769531 1465.621094 2241.621094 C 1453.46875 2238.921875 1441.320312 2246.121094 1430.519531 2252.871094 C 1399.921875 2272.21875 1369.320312 2291.570312 1338.71875 2310.921875 C 1363.019531 2265.46875 1407.121094 2231.269531 1457.070312 2219.121094 C 1458.421875 2203.371094 1442.21875 2190.769531 1426.46875 2189.421875 C 1410.71875 2188.519531 1395.871094 2195.269531 1381.46875 2202.46875 C 1350.871094 2217.320312 1320.269531 2232.171875 1289.671875 2247.019531 C 1328.371094 2197.96875 1388.21875 2166.019531 1450.769531 2161.519531 C 1419.71875 2140.371094 1378.769531 2139.019531 1342.320312 2149.371094 C 1306.320312 2159.71875 1274.371094 2180.421875 1242.871094 2201.121094 C 1275.71875 2135.421875 1361.671875 2123.269531 1435.019531 2118.769531 C 1363.921875 2081.421875 1272.121094 2086.371094 1205.519531 2131.820312 C 1225.769531 2097.171875 1266.269531 2078.269531 1306.320312 2074.21875 C 1346.371094 2070.171875 1385.96875 2078.71875 1425.570312 2086.820312 C 1405.320312 2044.96875 1355.371094 2023.820312 1308.570312 2024.269531 C 1261.769531 2024.71875 1217.21875 2042.71875 1174.019531 2060.71875 C 1241.519531 1991.421875 1364.371094 1988.269531 1435.46875 2053.96875 C 1428.269531 1999.96875 1374.71875 1961.71875 1320.71875 1954.070312 C 1266.71875 1946.421875 1212.71875 1962.171875 1160.519531 1977.46875 C 1241.519531 1906.371094 1382.371094 1921.21875 1446.71875 2007.621094 C 1444.019531 1946.421875 1391.820312 1895.121094 1332.421875 1879.371094 C 1273.46875 1864.070312 1209.570312 1878.019531 1153.769531 1903.21875 C 1198.320312 1858.21875 1266.269531 1838.421875 1327.921875 1852.820312 C 1389.121094 1867.21875 1441.769531 1914.921875 1461.570312 1974.769531 C 1494.871094 1938.320312 1476.421875 1881.171875 1475.519531 1832.121094 C 1474.621094 1764.621094 1511.070312 1702.519531 1547.519531 1645.820312 C 1570.019531 1683.621094 1584.871094 1726.371094 1589.820312 1770.46875 C 1639.320312 1751.570312 1674.421875 1704.320312 1691.070312 1653.921875 C 1707.71875 1603.519531 1709.519531 1549.070312 1710.421875 1495.96875 C 1711.769531 1449.621094 1712.671875 1403.71875 1713.570312 1357.820312 M 1290.570312 2579.570312 C 1310.371094 2572.371094 1318.921875 2548.519531 1315.320312 2527.820312 C 1311.71875 2507.121094 1299.121094 2489.570312 1286.519531 2472.921875 C 1249.171875 2422.96875 1212.269531 2373.019531 1174.921875 2323.070312 C 1137.570312 2440.96875 1006.621094 2521.519531 884.21875 2500.820312 C 862.617188 2497.21875 842.367188 2514.769531 834.71875 2535.019531 C 827.066406 2555.71875 829.316406 2578.21875 831.566406 2599.820312 C 837.417969 2656.96875 844.167969 2715.921875 873.867188 2764.96875 C 925.617188 2850.019531 1033.171875 2882.871094 1132.621094 2889.171875 C 1170.871094 2891.421875 1210.46875 2890.519531 1246.921875 2877.019531 C 1282.921875 2863.070312 1315.320312 2834.71875 1324.769531 2797.371094 C 1323.421875 2829.769531 1346.820312 2859.921875 1376.519531 2873.871094 C 1405.769531 2887.820312 1439.519531 2889.171875 1471.921875 2886.019531 C 1537.621094 2879.71875 1601.070312 2859.019531 1660.921875 2832.46875 C 1684.320312 2822.121094 1707.71875 2810.871094 1725.71875 2792.421875 C 1761.269531 2755.96875 1768.019531 2701.070312 1772.519531 2650.21875 C 1775.21875 2617.371094 1778.371094 2584.519531 1781.070312 2552.121094 C 1670.371094 2613.769531 1529.519531 2618.71875 1414.769531 2563.820312 C 1416.570312 2601.171875 1406.21875 2640.320312 1378.769531 2665.519531 C 1351.320312 2690.269531 1304.96875 2695.671875 1277.519531 2670.921875 C 1250.070312 2646.171875 1255.46875 2592.171875 1290.570312 2579.570312 M 2065.921875 1219.21875 C 2145.121094 1201.21875 2228.371094 1201.21875 2307.570312 1218.320312 C 2217.570312 1221.46875 2119.019531 1227.769531 2052.871094 1288.96875 C 2130.269531 1298.871094 2206.320312 1321.371094 2276.519531 1355.570312 C 2235.121094 1358.71875 2194.621094 1346.121094 2153.21875 1341.621094 C 2112.269531 1337.570312 2065.46875 1344.320312 2039.820312 1376.71875 C 2075.820312 1396.96875 2111.820312 1417.21875 2147.820312 1437.019531 C 2189.671875 1460.871094 2233.769531 1486.070312 2257.621094 1527.46875 C 2186.519531 1475.71875 2102.371094 1441.519531 2015.070312 1428.921875 C 2052.421875 1522.519531 2155.921875 1581.46875 2180.671875 1679.121094 C 2142.871094 1634.121094 2105.070312 1589.570312 2066.820312 1545.019531 C 2050.171875 1525.21875 2030.820312 1504.070312 2005.171875 1501.371094 C 1979.519531 1499.121094 1952.519531 1529.269531 1968.269531 1549.96875 C 2049.71875 1659.769531 2083.46875 1804.21875 2058.71875 1938.769531 C 2208.570312 1847.871094 2273.371094 1666.519531 2318.371094 1496.871094 C 2362.921875 1327.671875 2404.769531 1145.421875 2531.671875 1024.371094 C 2500.621094 1034.269531 2468.21875 1039.671875 2435.371094 1040.570312 C 2371.46875 1041.921875 2308.46875 1025.71875 2244.570312 1017.621094 C 2181.121094 1009.96875 2113.171875 1010.421875 2057.820312 1042.820312 C 2050.621094 1046.421875 2043.421875 1051.371094 2040.71875 1059.019531 C 2037.570312 1066.21875 2039.371094 1074.769531 2041.171875 1082.421875 C 2046.570312 1108.519531 2052.421875 1135.070312 2058.269531 1161.171875 C 2129.371094 1104.921875 2220.269531 1073.421875 2311.621094 1074.320312 C 2219.371094 1104.921875 2121.269531 1139.570312 2065.921875 1219.21875 M 507.117188 1026.171875 C 366.71875 992.871094 220.917969 1070.269531 76.917969 1056.320312 C 151.167969 1113.46875 192.566406 1203.019531 220.46875 1292.570312 C 257.816406 1412.71875 274.917969 1538.71875 313.167969 1659.320312 C 351.417969 1779.46875 414.867188 1897.820312 520.167969 1967.121094 C 468.867188 1883.421875 469.769531 1770.46875 522.867188 1687.671875 C 546.269531 1651.21875 578.667969 1620.171875 596.667969 1580.570312 C 615.117188 1541.421875 613.316406 1486.96875 576.867188 1462.671875 C 512.96875 1530.621094 449.066406 1598.121094 385.167969 1666.070312 C 428.367188 1576.96875 491.816406 1499.570312 554.816406 1423.519531 C 565.167969 1411.371094 552.117188 1391.121094 536.367188 1387.96875 C 520.617188 1385.269531 505.316406 1393.371094 491.367188 1401.019531 C 436.46875 1432.070312 382.019531 1462.671875 327.566406 1493.71875 C 386.519531 1425.769531 460.316406 1370.871094 542.667969 1334.871094 C 471.566406 1288.070312 379.316406 1293.921875 294.269531 1301.121094 C 368.96875 1274.570312 448.617188 1263.320312 527.816406 1267.820312 C 476.519531 1181.871094 388.316406 1118.871094 290.667969 1098.621094 C 382.46875 1096.371094 475.167969 1135.070312 538.167969 1202.121094 C 508.46875 1156.21875 580.917969 1086.46875 544.917969 1044.621094 C 535.46875 1034.269531 521.066406 1029.320312 507.117188 1026.171875 M 1818.421875 2942.71875 C 1808.070312 2941.820312 1797.269531 2940.921875 1787.820312 2945.421875 C 1764.871094 2956.671875 1765.769531 2989.96875 1775.671875 3013.820312 C 1801.769531 3078.171875 1864.769531 3121.820312 1931.371094 3141.621094 C 1997.96875 3161.421875 2069.070312 3161.421875 2138.371094 3160.96875 C 2039.820312 3199.671875 1926.421875 3173.121094 1831.921875 3124.96875 C 1785.121094 3101.121094 1736.519531 3066.921875 1726.171875 3015.171875 C 1709.96875 3011.121094 1706.820312 3038.121094 1714.46875 3053.421875 C 1771.621094 3169.070312 1915.171875 3216.320312 2043.871094 3214.070312 C 2126.21875 3212.71875 2211.269531 3195.171875 2276.96875 3145.671875 C 2385.421875 3064.21875 2418.71875 2899.070312 2350.769531 2782.519531 C 2334.570312 2754.171875 2298.121094 2726.269531 2272.46875 2746.519531 C 2204.519531 2799.621094 2102.371094 2804.121094 2030.371094 2756.871094 C 2007.871094 2742.46875 1977.269531 2755.96875 1956.570312 2773.070312 C 1933.171875 2792.421875 1913.371094 2817.171875 1899.871094 2844.171875 C 1958.371094 2810.871094 2027.671875 2795.570312 2094.71875 2801.421875 C 2021.820312 2825.71875 1949.371094 2853.171875 1878.71875 2883.769531 C 1961.519531 2880.171875 2047.019531 2876.570312 2125.320312 2903.121094 C 2037.121094 2902.21875 1949.371094 2909.871094 1862.519531 2925.171875 C 1890.871094 2935.96875 1919.671875 2945.421875 1949.371094 2953.070312 C 1905.71875 2949.46875 1862.070312 2946.320312 1818.421875 2942.71875 M 728.519531 2909.871094 C 643.019531 2903.570312 557.066406 2897.269531 471.566406 2890.96875 C 557.066406 2869.371094 648.417969 2868.46875 734.367188 2887.820312 C 721.316406 2869.820312 698.367188 2861.71875 676.769531 2854.96875 C 602.066406 2831.570312 527.816406 2808.171875 453.117188 2784.320312 C 536.367188 2784.769531 619.617188 2801.871094 696.566406 2834.269531 C 681.71875 2780.269531 629.519531 2739.320312 573.71875 2737.519531 C 503.519531 2735.71875 427.917969 2787.921875 368.96875 2749.671875 C 347.816406 2736.171875 318.566406 2741.570312 298.316406 2756.871094 C 278.519531 2772.621094 266.816406 2796.46875 258.269531 2820.320312 C 211.019531 2953.070312 265.917969 3120.921875 392.816406 3182.570312 C 429.269531 3200.570312 469.316406 3209.121094 509.816406 3213.171875 C 649.769531 3226.671875 801.867188 3171.769531 876.117188 3052.519531 C 886.019531 3036.320312 895.019531 3018.320312 895.019531 2998.96875 C 895.019531 2979.621094 884.21875 2959.371094 865.769531 2953.519531 C 866.21875 3018.320312 823.019531 3076.371094 771.269531 3115.070312 C 662.367188 3196.070312 507.117188 3209.570312 385.617188 3147.921875 C 460.316406 3167.71875 539.066406 3175.820312 614.21875 3158.71875 C 689.367188 3141.621094 760.46875 3097.519531 798.269531 3030.46875 C 815.367188 3000.769531 823.917969 2960.269531 801.417969 2934.621094 C 784.316406 2914.820312 755.066406 2911.671875 728.519531 2909.871094 M 2272.46875 890.71875 C 2128.921875 815.121094 1938.121094 841.671875 1820.21875 953.269531 C 1810.320312 962.71875 1800.871094 973.070312 1799.519531 986.570312 C 1785.121094 1139.570312 1770.71875 1292.570312 1756.769531 1445.570312 C 1750.019531 1518.46875 1743.269531 1592.71875 1762.171875 1662.921875 C 1781.070312 1733.570312 1831.46875 1800.171875 1902.121094 1817.269531 C 1956.121094 1830.320312 2002.921875 1868.570312 2026.769531 1918.519531 C 2052.871094 1813.21875 2028.570312 1696.671875 1962.871094 1609.820312 C 1941.71875 1582.371094 1940.820312 1544.121094 1949.820312 1510.371094 C 1958.371094 1477.070312 1976.371094 1446.46875 1990.320312 1414.96875 C 2024.070312 1338.019531 2037.121094 1251.621094 2026.320312 1167.921875 C 2023.171875 1141.820312 2015.519531 1113.019531 1992.121094 1101.320312 C 1967.820312 1089.171875 1937.671875 1102.671875 1917.871094 1121.121094 C 1884.121094 1152.621094 1866.121094 1199.421875 1870.171875 1245.320312 C 1872.421875 1271.871094 1881.421875 1299.769531 1870.171875 1324.070312 C 1827.871094 1414.070312 1808.070312 1513.96875 1812.121094 1613.421875 C 1813.46875 1644.019531 1817.519531 1675.96875 1835.070312 1701.621094 C 1858.921875 1736.269531 1901.671875 1750.671875 1939.921875 1768.671875 C 1977.71875 1786.671875 2017.320312 1816.820312 2018.671875 1859.121094 C 1988.96875 1818.621094 1942.621094 1790.71875 1893.121094 1783.070312 C 1830.121094 1773.621094 1795.019531 1704.769531 1783.320312 1642.21875 C 1768.921875 1566.171875 1773.871094 1488.320312 1778.820312 1410.921875 C 1788.269531 1273.671875 1804.019531 1125.621094 1896.269531 1023.46875 C 1980.421875 929.871094 2123.96875 895.21875 2241.871094 939.769531 C 2285.070312 955.96875 2324.21875 981.621094 2366.96875 999.621094 C 2409.269531 1017.621094 2458.769531 1027.070312 2501.519531 1009.96875 C 2415.570312 998.269531 2349.421875 931.21875 2272.46875 890.71875 M 1566.871094 1957.21875 C 1558.320312 1960.371094 1552.019531 1967.121094 1546.171875 1973.871094 C 1502.96875 2026.519531 1481.371094 2098.519531 1496.21875 2165.121094 C 1511.070312 2231.71875 1564.621094 2289.769531 1631.671875 2303.269531 C 1594.320312 2256.019531 1621.320312 2179.96875 1673.96875 2151.171875 C 1726.621094 2122.371094 1793.21875 2131.820312 1847.21875 2157.46875 C 1831.921875 2122.371094 1825.171875 2083.21875 1827.421875 2044.519531 C 1827.871094 2036.421875 1829.671875 2027.421875 1835.96875 2022.46875 C 1851.269531 2011.21875 1868.371094 2033.269531 1873.769531 2051.269531 C 1911.570312 2174.121094 1928.671875 2303.269531 1924.621094 2431.519531 C 1957.46875 2431.519531 1985.371094 2404.96875 1998.871094 2374.820312 C 2012.371094 2345.121094 2015.519531 2311.820312 2022.269531 2279.421875 C 2024.96875 2265.921875 2029.019531 2251.519531 2040.269531 2242.96875 C 2051.070312 2234.421875 2070.871094 2236.21875 2075.371094 2249.71875 C 2100.570312 2145.769531 2074.46875 2030.570312 2007.421875 1947.320312 C 1984.921875 1919.421875 1957.46875 1894.671875 1924.171875 1881.621094 C 1866.121094 1858.671875 1791.871094 1870.820312 1749.121094 1825.820312 C 1735.171875 1811.421875 1709.96875 1814.570312 1694.671875 1827.171875 C 1679.371094 1839.769531 1671.269531 1859.121094 1663.621094 1877.570312 C 1699.171875 1874.421875 1732.921875 1910.421875 1727.519531 1945.519531 C 1722.121094 1980.621094 1679.371094 2004.921875 1646.519531 1990.96875 C 1618.621094 1979.269531 1594.769531 1946.421875 1566.871094 1957.21875 M 540.417969 1720.070312 C 507.566406 1776.769531 502.617188 1848.769531 527.367188 1909.070312 C 535.917969 1836.621094 593.066406 1771.820312 664.167969 1754.71875 C 739.316406 1736.269531 773.519531 1644.921875 767.667969 1567.519531 C 761.816406 1490.121094 728.96875 1416.320312 723.566406 1338.921875 C 720.867188 1302.019531 724.46875 1265.121094 722.667969 1228.21875 C 720.867188 1194.921875 713.667969 1160.269531 691.167969 1135.070312 C 669.117188 1110.320312 628.617188 1099.96875 601.617188 1119.769531 C 579.566406 1136.421875 573.71875 1166.570312 571.917969 1194.46875 C 566.96875 1263.769531 576.417969 1334.421875 599.367188 1400.570312 C 618.269531 1455.921875 646.617188 1512.621094 634.46875 1569.769531 C 621.867188 1627.820312 570.117188 1668.320312 540.417969 1720.070312 M 1354.019531 3232.96875 C 1271.21875 3207.769531 1188.421875 3183.019531 1105.621094 3157.820312 C 1097.96875 3155.570312 1088.070312 3154.21875 1083.570312 3160.519531 C 1017.421875 3258.171875 908.519531 3316.671875 804.117188 3371.570312 C 823.917969 3382.371094 847.769531 3372.46875 870.269531 3367.96875 C 892.316406 3363.46875 922.917969 3371.121094 923.367188 3394.070312 C 924.71875 3432.769531 942.269531 3470.570312 970.617188 3497.121094 C 976.019531 3502.070312 982.316406 3507.019531 989.96875 3507.921875 C 996.269531 3508.820312 1003.019531 3506.570312 1009.320312 3504.320312 C 1080.421875 3478.21875 1151.070312 3449.421875 1213.171875 3405.769531 C 1275.269531 3362.570312 1328.371094 3304.070312 1354.019531 3232.96875 M 1490.820312 3170.421875 C 1455.71875 3175.820312 1412.519531 3187.519531 1404.421875 3222.171875 C 1391.820312 3277.070312 1405.769531 3336.46875 1436.371094 3383.71875 C 1466.96875 3431.421875 1513.320312 3466.96875 1564.621094 3490.820312 C 1599.269531 3507.019531 1637.519531 3518.269531 1666.320312 3543.921875 C 1684.769531 3560.121094 1713.121094 3539.421875 1725.269531 3517.820312 C 1742.820312 3486.320312 1751.820312 3449.871094 1750.46875 3413.871094 C 1771.621094 3400.371094 1798.171875 3395.421875 1822.921875 3400.371094 C 1835.96875 3402.621094 1855.769531 3402.171875 1853.96875 3389.121094 C 1725.71875 3353.121094 1609.171875 3277.96875 1522.769531 3176.269531 C 1515.570312 3167.71875 1502.070312 3168.621094 1490.820312 3170.421875 M 778.019531 1682.71875 C 771.269531 1706.121094 762.269531 1730.421875 743.816406 1746.171875 C 726.71875 1760.121094 704.667969 1765.519531 683.519531 1771.820312 C 645.71875 1783.519531 609.269531 1801.96875 582.71875 1831.21875 C 555.71875 1860.019531 539.96875 1900.96875 547.617188 1939.671875 C 568.769531 1869.921875 628.167969 1813.21875 698.367188 1794.320312 C 749.667969 1780.820312 787.917969 1735.371094 805.917969 1685.421875 C 823.917969 1635.46875 824.816406 1581.019531 824.816406 1527.921875 C 825.269531 1355.570312 816.71875 1182.769531 799.167969 1011.320312 C 797.816406 996.019531 796.019531 979.820312 787.46875 967.21875 C 778.917969 954.621094 765.417969 946.519531 751.917969 939.320312 C 665.96875 890.71875 571.917969 840.769531 473.816406 853.371094 C 419.816406 860.121094 369.867188 885.769531 321.71875 910.519531 C 238.917969 953.269531 156.117188 996.019531 73.769531 1038.769531 C 202.917969 1046.871094 314.519531 944.71875 442.769531 926.71875 C 546.269531 912.320312 655.617188 957.769531 718.167969 1041.019531 C 778.46875 1121.570312 793.316406 1226.871094 800.96875 1327.21875 C 809.519531 1446.46875 810.417969 1567.96875 778.019531 1682.71875 M 1450.769531 825.019531 C 1461.121094 829.519531 1473.269531 829.96875 1484.519531 831.320312 C 1577.21875 840.320312 1667.21875 874.070312 1743.269531 928.070312 C 1749.570312 923.121094 1744.171875 913.21875 1738.769531 907.820312 C 1718.070312 886.21875 1693.769531 867.769531 1667.21875 854.269531 C 1648.320312 844.371094 1638.871094 822.769531 1637.070312 801.621094 C 1635.269531 777.320312 1643.371094 749.871094 1664.519531 737.269531 C 1685.21875 724.21875 1718.96875 733.671875 1723.921875 757.519531 C 1732.46875 743.121094 1719.871094 725.570312 1706.820312 714.769531 C 1679.371094 692.71875 1646.070312 679.21875 1612.320312 667.96875 C 1553.371094 648.621094 1492.171875 636.019531 1430.070312 631.070312 C 1442.671875 640.96875 1436.820312 661.21875 1426.46875 672.921875 C 1415.671875 684.621094 1401.269531 694.070312 1396.769531 708.921875 C 1393.621094 719.71875 1396.320312 731.421875 1399.019531 742.21875 C 1407.570312 775.070312 1419.269531 812.421875 1450.769531 825.019531 M 1165.921875 816.019531 C 1180.769531 815.570312 1189.320312 798.921875 1193.820312 784.96875 C 1201.46875 760.21875 1207.320312 734.570312 1210.46875 708.921875 C 1211.371094 701.269531 1211.371094 692.269531 1204.621094 688.21875 C 1184.820312 675.621094 1175.820312 647.71875 1184.820312 625.671875 C 1099.769531 634.21875 1016.519531 657.621094 940.019531 694.96875 C 931.917969 699.019531 922.917969 704.421875 922.46875 713.421875 C 922.019531 722.421875 930.117188 728.71875 936.417969 735.019531 C 960.71875 759.320312 963.867188 802.070312 943.617188 829.519531 C 917.96875 863.269531 867.117188 870.46875 843.269531 905.570312 C 870.269531 901.96875 895.019531 888.019531 919.769531 876.320312 C 996.71875 839.871094 1080.871094 819.171875 1165.921875 816.019531 M 492.71875 2451.769531 C 510.269531 2447.71875 535.019531 2446.371094 536.816406 2428.820312 C 488.21875 2409.921875 433.769531 2429.71875 385.167969 2449.519531 C 363.566406 2458.519531 340.617188 2468.421875 328.917969 2488.21875 C 320.367188 2501.71875 318.566406 2518.371094 319.019531 2534.570312 C 319.46875 2562.46875 327.117188 2589.921875 340.167969 2614.671875 C 356.816406 2646.171875 383.816406 2672.71875 417.117188 2684.421875 C 468.417969 2701.96875 528.71875 2679.46875 559.769531 2635.371094 C 591.269531 2591.269531 593.066406 2529.621094 569.21875 2481.46875 C 564.269531 2472.019531 557.519531 2462.121094 546.71875 2460.769531 C 533.21875 2459.421875 522.867188 2473.371094 520.167969 2486.871094 C 517.917969 2500.371094 519.71875 2514.320312 515.21875 2527.371094 C 510.71875 2540.421875 494.96875 2551.21875 483.71875 2543.570312 C 465.71875 2532.320312 450.867188 2580.019531 432.867188 2569.671875 C 427.917969 2540.421875 408.117188 2514.320312 382.019531 2501.269531 C 369.417969 2494.96875 354.566406 2490.921875 346.46875 2479.21875 C 374.367188 2466.621094 411.269531 2476.96875 427.917969 2502.621094 C 433.769531 2511.171875 438.269531 2521.519531 448.167969 2525.121094 C 440.066406 2494.070312 461.667969 2458.96875 492.71875 2451.769531 M 1209.121094 903.320312 C 1214.070312 948.320312 1248.71875 989.71875 1293.269531 998.71875 C 1337.371094 1007.71875 1387.320312 979.820312 1400.371094 936.621094 C 1409.820312 903.769531 1399.46875 869.121094 1389.121094 836.71875 C 1376.96875 798.019531 1364.371094 759.320312 1352.21875 721.070312 C 1351.320312 718.371094 1350.421875 715.671875 1348.621094 713.871094 C 1345.921875 711.171875 1341.421875 711.171875 1337.820312 711.171875 C 1318.921875 710.71875 1300.019531 710.71875 1281.121094 710.71875 C 1275.71875 710.71875 1269.871094 710.71875 1265.371094 712.96875 C 1258.171875 717.019531 1254.570312 725.121094 1251.871094 733.21875 C 1243.769531 756.621094 1235.671875 780.46875 1227.570312 804.320312 C 1216.769531 836.269531 1205.519531 869.570312 1209.121094 903.320312 M 1180.769531 67.21875 C 1161.871094 66.769531 1145.21875 82.519531 1142.519531 100.96875 C 1139.820312 119.421875 1149.71875 138.769531 1165.019531 149.121094 C 1096.171875 186.921875 1050.269531 263.871094 1049.820312 342.621094 C 1049.820312 356.570312 1051.621094 370.96875 1061.070312 380.871094 C 1070.070312 390.769531 1089.871094 391.671875 1095.71875 379.519531 C 1078.171875 362.871094 1077.71875 335.421875 1082.21875 312.019531 C 1101.570312 213.921875 1198.320312 136.96875 1298.21875 140.121094 C 1398.570312 142.820312 1490.371094 225.621094 1503.871094 324.621094 C 1506.570312 345.769531 1501.621094 374.121094 1480.46875 377.71875 C 1501.171875 380.871094 1522.320312 383.570312 1543.46875 386.71875 C 1549.769531 387.621094 1556.070312 388.519531 1561.921875 385.820312 C 1571.371094 381.769531 1575.421875 370.519531 1577.21875 360.621094 C 1582.171875 335.871094 1581.269531 310.21875 1575.421875 285.921875 C 1555.621094 310.21875 1549.320312 344.871094 1559.21875 375.019531 C 1557.421875 379.96875 1548.871094 379.96875 1545.269531 375.921875 C 1541.671875 371.871094 1541.21875 365.570312 1540.769531 360.171875 C 1536.71875 297.621094 1516.46875 236.421875 1482.269531 184.21875 C 1492.171875 188.71875 1503.871094 191.421875 1513.769531 186.46875 C 1526.371094 180.171875 1529.96875 160.820312 1520.519531 150.46875 C 1510.621094 140.121094 1491.269531 141.46875 1483.621094 153.621094 C 1471.921875 172.070312 1440.871094 168.019531 1428.269531 150.019531 C 1416.121094 131.570312 1418.820312 106.820312 1427.371094 87.019531 C 1431.871094 76.21875 1417.019531 68.121094 1405.769531 66.320312 C 1372.46875 60.019531 1339.171875 53.71875 1305.871094 47.421875 C 1310.371094 65.871094 1315.320312 83.871094 1319.820312 102.320312 C 1299.121094 107.71875 1277.519531 109.070312 1256.371094 106.371094 C 1250.519531 91.96875 1250.070312 76.21875 1254.570312 61.820312 C 1264.019531 72.621094 1271.21875 86.121094 1273.921875 100.519531 C 1289.21875 103.21875 1303.171875 86.121094 1300.019531 71.269531 C 1297.320312 55.96875 1282.019531 45.621094 1266.71875 44.269531 C 1251.421875 42.921875 1236.121094 49.21875 1223.519531 57.769531 C 1213.621094 64.070312 1213.171875 79.371094 1219.46875 89.269531 C 1226.21875 99.171875 1237.019531 104.570312 1247.371094 109.96875 C 1233.421875 114.921875 1219.46875 119.421875 1205.519531 124.371094 C 1222.621094 104.570312 1206.421875 68.121094 1180.769531 67.21875 M 2272.46875 2540.871094 C 2259.871094 2530.96875 2240.96875 2531.871094 2225.21875 2537.71875 C 2199.121094 2546.71875 2177.070312 2567.871094 2166.269531 2593.519531 C 2143.769531 2578.21875 2108.21875 2602.070312 2087.96875 2583.621094 C 2078.96875 2575.070312 2078.070312 2561.121094 2078.96875 2548.96875 C 2079.871094 2536.371094 2082.570312 2523.769531 2078.96875 2511.621094 C 2075.371094 2499.921875 2061.871094 2490.019531 2050.621094 2494.96875 C 2011.46875 2513.421875 2001.121094 2565.621094 2011.019531 2607.46875 C 2025.871094 2670.46875 2083.46875 2726.71875 2148.269531 2722.671875 C 2192.820312 2720.421875 2232.421875 2691.171875 2258.96875 2654.71875 C 2273.371094 2634.46875 2285.070312 2610.621094 2287.320312 2585.871094 C 2289.121094 2569.21875 2285.519531 2551.21875 2272.46875 2540.871094 M 1338.269531 345.769531 C 1328.371094 348.46875 1314.871094 350.71875 1313.519531 361.070312 C 1361.21875 367.371094 1408.921875 370.070312 1456.621094 369.171875 C 1473.71875 312.46875 1455.269531 246.320312 1412.070312 205.371094 C 1369.320312 164.421875 1303.621094 148.671875 1246.019531 163.96875 C 1188.421875 179.269531 1140.269531 223.820312 1118.21875 279.171875 C 1109.671875 300.769531 1105.171875 325.070312 1114.171875 346.671875 C 1123.171875 367.820312 1149.71875 382.21875 1169.96875 371.871094 C 1155.121094 350.269531 1154.21875 321.46875 1162.320312 296.71875 C 1169.96875 271.96875 1185.71875 250.371094 1202.820312 230.570312 C 1222.621094 206.71875 1246.921875 183.320312 1277.96875 179.71875 C 1321.171875 174.320312 1360.769531 211.671875 1372.921875 253.519531 C 1382.820312 288.621094 1372.921875 334.96875 1338.269531 345.769531 M 1015.621094 3015.621094 C 1011.121094 3086.269531 962.066406 3147.019531 905.816406 3189.769531 C 866.667969 3219.46875 823.019531 3242.871094 776.667969 3259.070312 C 680.816406 3293.269531 576.417969 3295.96875 474.71875 3295.519531 C 467.066406 3302.71875 480.566406 3312.621094 490.46875 3313.96875 C 671.816406 3338.71875 872.519531 3298.671875 998.519531 3165.46875 C 1018.320312 3144.769531 1036.769531 3120.46875 1042.621094 3092.121094 C 1048.921875 3064.21875 1040.371094 3030.921875 1015.621094 3015.621094 M 1572.269531 3095.71875 C 1557.871094 3102.019531 1560.121094 3123.171875 1566.421875 3137.570312 C 1587.121094 3182.121094 1627.171875 3214.96875 1669.019531 3240.171875 C 1806.269531 3322.96875 1979.519531 3342.769531 2132.070312 3293.71875 C 2106.871094 3284.71875 2078.96875 3287.421875 2052.421875 3288.769531 C 1923.71875 3295.96875 1792.769531 3264.46875 1681.171875 3199.671875 C 1637.070312 3174.019531 1594.769531 3141.621094 1572.269531 3095.71875 M 1688.820312 2249.71875 C 1709.070312 2230.371094 1737.871094 2220.921875 1765.769531 2224.519531 C 1793.21875 2227.671875 1818.871094 2244.769531 1833.269531 2268.171875 C 1854.871094 2303.269531 1850.371094 2348.71875 1835.96875 2387.421875 C 1833.71875 2392.371094 1831.921875 2397.769531 1832.371094 2403.171875 C 1833.269531 2408.570312 1838.671875 2413.96875 1844.070312 2412.171875 C 1872.871094 2369.421875 1884.121094 2314.519531 1870.171875 2264.570312 C 1855.769531 2215.070312 1813.921875 2173.21875 1763.519531 2163.320312 C 1730.21875 2156.570312 1692.871094 2164.671875 1669.019531 2189.421875 C 1645.621094 2213.71875 1638.871094 2255.121094 1658.671875 2282.570312 C 1666.320312 2293.371094 1680.269531 2301.921875 1691.519531 2295.621094 C 1706.820312 2286.621094 1699.621094 2263.21875 1688.820312 2249.71875 M 1245.570312 546.019531 C 1255.921875 561.769531 1276.171875 569.871094 1295.519531 570.769531 C 1314.421875 571.21875 1333.320312 566.269531 1352.21875 560.871094 C 1373.371094 555.019531 1384.621094 530.71875 1382.820312 508.671875 C 1381.019531 486.621094 1369.320312 467.269531 1357.621094 448.820312 C 1345.46875 430.820312 1328.820312 410.570312 1307.671875 412.820312 C 1289.671875 414.621094 1277.519531 430.371094 1267.621094 444.769531 C 1256.820312 460.070312 1246.46875 475.371094 1240.621094 492.921875 C 1235.21875 510.46875 1235.21875 530.71875 1245.570312 546.019531 M 917.96875 554.121094 C 906.269531 550.96875 895.019531 567.171875 901.769531 577.070312 C 908.96875 587.871094 926.066406 584.71875 938.667969 580.671875 C 1016.519531 554.121094 1099.320312 541.070312 1181.671875 543.320312 C 1196.96875 543.769531 1205.96875 526.671875 1207.769531 511.820312 C 1209.121094 496.96875 1207.769531 480.769531 1216.769531 468.621094 C 1142.96875 476.269531 1069.621094 489.769531 998.066406 509.121094 C 979.167969 514.519531 958.917969 520.820312 947.21875 536.570312 C 938.21875 548.71875 934.617188 565.820312 921.566406 572.570312 C 916.167969 568.070312 914.816406 559.96875 917.96875 554.121094 M 1694.21875 584.269531 C 1692.421875 559.070312 1675.320312 536.570312 1654.171875 522.621094 C 1633.019531 508.671875 1608.269531 501.46875 1583.519531 496.070312 C 1527.71875 483.019531 1470.570312 474.921875 1412.96875 472.21875 C 1401.269531 501.019531 1424.671875 538.371094 1456.171875 540.171875 C 1536.71875 544.21875 1617.269531 559.070312 1694.21875 584.269531 M 1588.46875 1925.269531 C 1592.070312 1927.96875 1595.671875 1930.671875 1600.171875 1931.121094 C 1607.820312 1932.019531 1614.570312 1925.71875 1619.96875 1919.421875 C 1628.519531 1908.171875 1636.171875 1896.46875 1642.46875 1883.871094 C 1591.621094 1836.171875 1558.320312 1771.371094 1548.421875 1702.519531 C 1547.519531 1696.671875 1545.71875 1689.019531 1539.421875 1688.570312 C 1532.671875 1687.671875 1529.519531 1697.121094 1529.070312 1704.320312 C 1526.820312 1731.320312 1520.519531 1758.320312 1510.171875 1783.519531 C 1503.421875 1800.621094 1494.871094 1818.171875 1499.371094 1835.71875 C 1502.519531 1849.671875 1512.871094 1860.019531 1523.21875 1869.921875 C 1543.921875 1889.269531 1565.96875 1907.71875 1588.46875 1925.269531 M 915.71875 2947.21875 C 930.566406 2961.171875 939.117188 2981.421875 940.019531 3001.671875 C 941.367188 3030.921875 926.96875 3057.921875 910.769531 3081.769531 C 850.019531 3169.519531 754.617188 3230.269531 651.566406 3257.71875 C 655.617188 3266.269531 667.769531 3266.269531 677.21875 3264.921875 C 759.117188 3252.769531 837.417969 3215.421875 898.617188 3159.171875 C 938.21875 3123.171875 972.417969 3075.019531 972.867188 3021.019531 C 973.316406 2986.371094 950.816406 2946.320312 915.71875 2947.21875 M 1076.371094 3005.269531 C 1131.71875 3034.070312 1198.320312 3041.71875 1259.070312 3025.96875 C 1292.820312 3017.421875 1327.46875 3001.671875 1361.671875 3009.769531 C 1458.421875 3033.171875 1564.171875 3016.070312 1648.769531 2964.320312 C 1616.371094 2970.171875 1583.519531 2976.019531 1550.671875 2981.871094 C 1516.019531 2988.171875 1480.921875 2994.46875 1445.371094 2992.671875 C 1421.519531 2991.320312 1397.671875 2985.921875 1373.820312 2985.019531 C 1301.820312 2980.96875 1230.71875 3012.46875 1158.71875 3006.171875 C 1131.269531 3003.921875 1102.46875 2995.820312 1076.371094 3005.269531 M 1287.871094 331.820312 C 1304.519531 333.621094 1322.070312 329.121094 1334.671875 317.871094 C 1359.871094 295.371094 1357.171875 252.171875 1336.019531 225.171875 C 1322.96875 208.070312 1301.820312 195.921875 1280.671875 198.171875 C 1269.871094 199.519531 1259.519531 204.46875 1251.421875 211.21875 C 1220.371094 237.320312 1220.820312 291.769531 1252.320312 317.421875 C 1262.21875 325.519531 1274.820312 330.46875 1287.871094 331.820312 M 2271.121094 2435.570312 C 2224.320312 2393.71875 2152.769531 2382.019531 2094.71875 2405.871094 C 2074.921875 2413.96875 2053.769531 2435.121094 2063.21875 2454.46875 C 2095.171875 2444.121094 2128.921875 2434.21875 2161.769531 2439.171875 C 2215.320312 2447.269531 2254.46875 2491.820312 2288.21875 2533.671875 C 2305.320312 2502.171875 2297.671875 2459.421875 2271.121094 2435.570312 M 1484.96875 565.371094 C 1477.320312 564.46875 1469.21875 563.121094 1461.121094 564.921875 C 1443.570312 568.519531 1431.871094 585.171875 1421.96875 600.46875 C 1528.621094 619.371094 1635.269531 638.269531 1741.921875 657.171875 C 1673.519531 595.519531 1576.320312 579.320312 1484.96875 565.371094 M 833.367188 1022.121094 C 909.417969 942.019531 1016.96875 892.070312 1127.21875 885.320312 C 1152.421875 883.96875 1174.019531 860.121094 1172.671875 835.371094 C 1068.269531 846.171875 966.566406 885.769531 881.519531 947.871094 C 856.769531 965.871094 830.667969 991.519531 833.367188 1022.121094 M 1031.820312 464.570312 C 1080.871094 459.171875 1130.371094 454.21875 1179.421875 449.269531 C 1201.019531 447.019531 1223.519531 444.320312 1240.621094 431.269531 C 1259.070312 417.320312 1277.070312 403.371094 1295.519531 389.421875 C 1190.21875 384.921875 1083.570312 409.21875 990.867188 459.171875 C 1002.121094 466.820312 1017.871094 465.921875 1031.820312 464.570312 M 1760.371094 1040.570312 C 1757.671875 1008.171875 1734.269531 981.171875 1709.519531 960.019531 C 1636.621094 896.121094 1543.019531 856.519531 1446.71875 847.96875 C 1444.921875 865.070312 1456.621094 880.820312 1471.019531 889.371094 C 1485.871094 897.921875 1502.96875 901.070312 1519.171875 904.671875 C 1600.171875 920.871094 1682.519531 952.820312 1732.921875 1018.070312 C 1740.121094 1027.519531 1748.21875 1038.769531 1760.371094 1040.570312 M 1618.171875 473.570312 C 1605.121094 452.421875 1582.621094 438.019531 1560.121094 427.671875 C 1502.96875 402.019531 1439.070312 396.621094 1376.96875 391.671875 C 1362.570312 390.769531 1348.171875 389.421875 1334.21875 388.519531 C 1355.820312 417.769531 1382.820312 449.71875 1419.269531 450.621094 C 1486.320312 452.421875 1552.921875 460.070312 1618.171875 473.570312 M 850.46875 658.96875 C 872.066406 665.71875 895.46875 658.070312 917.519531 651.320312 C 1002.121094 623.871094 1090.320312 606.769531 1179.421875 600.019531 C 1187.519531 589.671875 1179.871094 573.019531 1168.171875 567.171875 C 1156.019531 561.320312 1142.070312 562.671875 1128.570312 564.921875 C 1113.71875 566.71875 1098.421875 568.96875 1083.121094 571.671875 C 1001.21875 586.070312 921.566406 616.21875 850.46875 658.96875 M 323.519531 2457.171875 C 377.066406 2425.671875 435.566406 2393.71875 496.769531 2401.371094 C 512.066406 2403.171875 532.316406 2404.96875 537.71875 2390.570312 C 541.316406 2381.570312 535.46875 2370.769531 526.917969 2365.820312 C 518.816406 2360.871094 508.46875 2360.421875 499.019531 2359.519531 C 460.316406 2357.269531 420.71875 2355.019531 384.71875 2368.96875 C 349.167969 2383.371094 318.566406 2418.921875 323.519531 2457.171875 M 1673.070312 2992.21875 C 1664.519531 2985.921875 1651.46875 2992.21875 1644.269531 3000.320312 C 1628.070312 3018.769531 1625.371094 3045.769531 1631.671875 3069.621094 C 1637.96875 3093.019531 1652.820312 3113.269531 1668.570312 3131.71875 C 1716.269531 3186.171875 1778.820312 3227.121094 1847.671875 3248.71875 C 1869.269531 3255.46875 1892.671875 3260.421875 1913.820312 3253.671875 C 1834.171875 3229.820312 1760.371094 3185.71875 1700.96875 3126.769531 C 1682.96875 3108.769531 1665.871094 3088.519531 1658.21875 3063.769531 C 1650.121094 3039.46875 1654.171875 3009.769531 1673.070312 2992.21875 M 1282.921875 2973.769531 C 1273.921875 2961.171875 1264.921875 2948.121094 1255.921875 2935.519531 C 1181.21875 2955.320312 1101.570312 2956.21875 1026.871094 2938.21875 C 997.167969 2931.019531 966.117188 2921.121094 936.417969 2927.421875 C 1010.21875 2975.570312 1103.820312 2976.019531 1192.019531 2975.121094 C 1222.171875 2974.671875 1252.769531 2974.21875 1282.921875 2973.769531 M 1421.070312 913.671875 C 1417.921875 967.671875 1370.21875 1015.820312 1316.21875 1019.421875 C 1262.21875 1022.570312 1209.121094 980.71875 1199.21875 927.621094 C 1198.769531 924.921875 1198.320312 921.769531 1195.621094 920.421875 C 1191.121094 918.621094 1187.96875 925.820312 1187.96875 930.769531 C 1189.769531 989.71875 1239.269531 1042.820312 1297.769531 1048.671875 C 1356.269531 1054.519531 1415.21875 1011.320312 1428.269531 954.171875 C 1431.421875 940.21875 1431.421875 923.570312 1421.070312 913.671875 M 1315.769531 3025.070312 C 1274.820312 3060.171875 1219.921875 3073.21875 1167.269531 3085.371094 C 1213.171875 3108.769531 1273.921875 3100.21875 1311.269531 3064.21875 C 1318.019531 3057.921875 1324.320312 3050.269531 1332.421875 3046.21875 C 1340.96875 3042.171875 1352.671875 3043.070312 1358.070312 3050.71875 C 1376.96875 3076.820312 1412.519531 3089.421875 1443.570312 3080.421875 C 1448.519531 3079.070312 1453.921875 3076.820312 1456.171875 3072.320312 C 1458.871094 3067.820312 1456.621094 3060.621094 1451.671875 3060.171875 C 1424.671875 3057.019531 1399.019531 3048.921875 1375.621094 3035.421875 C 1356.71875 3024.621094 1332.421875 3011.121094 1315.769531 3025.070312 M 548.96875 2317.671875 C 531.867188 2315.421875 512.519531 2312.269531 501.269531 2298.769531 C 489.566406 2285.269531 490.019531 2265.019531 489.566406 2246.570312 C 488.667969 2228.570312 484.617188 2207.421875 468.417969 2198.871094 C 484.167969 2202.921875 500.367188 2183.121094 493.167969 2168.269531 C 485.96875 2153.871094 460.316406 2154.320312 453.566406 2169.171875 C 451.316406 2175.019531 451.316406 2181.769531 451.316406 2188.070312 C 452.21875 2229.019531 453.117188 2269.96875 454.019531 2310.921875 C 454.019531 2313.171875 454.46875 2315.871094 455.367188 2317.671875 C 457.617188 2321.71875 462.566406 2322.621094 466.617188 2323.519531 C 484.167969 2325.769531 501.269531 2328.46875 518.816406 2331.171875 C 531.417969 2332.96875 549.417969 2330.269531 548.96875 2317.671875 M 2174.371094 2530.070312 C 2195.96875 2523.769531 2218.019531 2517.46875 2239.621094 2510.71875 C 2200.019531 2463.019531 2125.769531 2447.71875 2070.421875 2476.070312 C 2101.921875 2485.519531 2136.121094 2497.671875 2151.871094 2526.46875 C 2155.46875 2533.671875 2166.269531 2532.320312 2174.371094 2530.070312 M 1263.121094 676.070312 C 1302.269531 684.171875 1343.671875 680.121094 1380.570312 664.820312 C 1387.769531 662.121094 1395.421875 658.070312 1398.570312 650.871094 C 1401.269531 643.671875 1395.871094 632.871094 1388.21875 634.671875 C 1327.921875 645.921875 1266.269531 646.820312 1205.519531 637.371094 C 1214.519531 659.871094 1239.71875 671.570312 1263.121094 676.070312 M 1303.171875 2633.570312 C 1307.671875 2645.71875 1325.21875 2647.96875 1337.371094 2643.46875 C 1364.820312 2634.019531 1381.019531 2603.421875 1379.671875 2574.621094 C 1377.871094 2545.820312 1361.21875 2519.269531 1338.71875 2501.269531 C 1333.320312 2529.621094 1352.671875 2562.019531 1336.46875 2585.421875 C 1330.621094 2593.96875 1321.171875 2599.371094 1313.519531 2606.121094 C 1305.871094 2612.871094 1299.570312 2623.671875 1303.171875 2633.570312 M 605.667969 2468.871094 C 601.167969 2495.421875 611.066406 2521.96875 614.667969 2548.519531 C 621.867188 2603.421875 600.71875 2661.46875 559.316406 2698.371094 C 564.269531 2709.171875 580.917969 2703.320312 589.46875 2694.769531 C 648.417969 2637.171875 655.617188 2534.570312 605.667969 2468.871094 M 2026.769531 2709.621094 C 2000.671875 2669.121094 1973.671875 2625.019531 1975.46875 2576.871094 C 1976.371094 2549.421875 1987.171875 2522.871094 1993.921875 2496.320312 C 1995.269531 2490.921875 1995.71875 2484.621094 1991.671875 2481.46875 C 1985.371094 2476.96875 1977.71875 2484.621094 1974.570312 2490.921875 C 1945.769531 2544.921875 1946.21875 2613.320312 1975.46875 2666.871094 C 1986.269531 2687.121094 2003.820312 2706.921875 2026.769531 2709.621094 M 1213.171875 573.921875 C 1212.269531 581.570312 1210.921875 588.769531 1210.019531 596.421875 C 1269.871094 632.871094 1351.320312 629.71875 1408.46875 589.671875 C 1394.070312 575.269531 1370.21875 582.921875 1350.871094 588.320312 C 1305.421875 600.46875 1255.46875 595.519531 1213.171875 573.921875 M 757.316406 2751.46875 C 746.066406 2763.621094 755.519531 2783.421875 765.867188 2796.921875 C 791.519531 2828.421875 823.019531 2855.871094 858.566406 2876.570312 C 880.167969 2889.171875 905.816406 2899.519531 929.21875 2890.96875 C 926.066406 2880.621094 914.816406 2876.121094 904.917969 2871.621094 C 845.519531 2847.320312 793.316406 2805.019531 757.316406 2751.46875 M 1526.371094 1460.421875 C 1528.171875 1465.371094 1533.121094 1468.070312 1538.070312 1469.871094 C 1566.871094 1479.769531 1599.71875 1476.621094 1625.820312 1460.871094 C 1651.921875 1445.121094 1670.371094 1417.671875 1674.871094 1387.519531 C 1676.671875 1374.019531 1669.921875 1355.121094 1656.871094 1358.269531 C 1652.820312 1382.570312 1645.621094 1406.871094 1629.871094 1425.769531 C 1614.121094 1445.121094 1588.019531 1456.820312 1564.171875 1450.519531 C 1556.070312 1448.71875 1548.871094 1444.671875 1540.320312 1445.121094 C 1532.21875 1445.121094 1523.671875 1452.769531 1526.371094 1460.421875 M 1852.621094 2826.171875 C 1818.871094 2891.871094 1753.171875 2940.019531 1680.71875 2953.519531 C 1687.019531 2967.46875 1706.820312 2967.46875 1721.671875 2962.96875 C 1786.921875 2944.96875 1843.171875 2896.371094 1870.171875 2834.269531 C 1866.570312 2828.871094 1859.371094 2825.269531 1852.621094 2826.171875 M 1021.019531 1453.21875 C 999.417969 1457.71875 976.46875 1446.921875 961.617188 1430.269531 C 946.316406 1414.070312 938.667969 1392.46875 933.71875 1370.421875 C 932.367188 1363.671875 924.269531 1359.621094 917.519531 1361.871094 C 911.21875 1401.46875 931.019531 1443.769531 965.667969 1463.570312 C 1000.320312 1483.371094 1047.121094 1479.769531 1077.71875 1454.121094 C 1072.769531 1445.121094 1060.621094 1442.871094 1050.71875 1444.671875 C 1040.371094 1446.46875 1031.371094 1451.421875 1021.019531 1453.21875 M 1953.421875 2447.269531 C 1934.96875 2464.371094 1911.121094 2475.621094 1886.371094 2478.320312 C 1878.71875 2479.21875 1868.820312 2481.921875 1868.371094 2489.570312 C 1892.21875 2504.871094 1912.46875 2526.019531 1926.871094 2550.769531 C 1930.921875 2508.46875 1964.671875 2476.070312 1983.121094 2437.820312 C 1975.019531 2430.171875 1961.96875 2439.621094 1953.421875 2447.269531 M 1715.820312 822.320312 C 1719.421875 805.671875 1722.121094 787.671875 1715.371094 771.921875 C 1708.171875 756.621094 1687.46875 746.269531 1673.519531 755.269531 C 1668.570312 758.421875 1664.96875 763.820312 1662.269531 769.21875 C 1651.921875 790.820312 1658.21875 818.71875 1676.671875 834.019531 C 1685.671875 841.21875 1700.519531 845.269531 1709.070312 836.71875 C 1712.671875 833.121094 1714.46875 827.269531 1715.820312 822.320312 M 892.769531 737.269531 C 877.019531 749.421875 869.367188 769.671875 868.46875 789.921875 C 867.566406 809.71875 872.519531 829.070312 877.917969 848.421875 C 903.566406 844.820312 926.519531 825.019531 933.269531 800.269531 C 940.019531 775.070312 931.019531 746.71875 910.769531 730.519531 C 911.667969 761.121094 912.117188 792.621094 898.617188 820.519531 C 890.96875 819.171875 889.617188 808.820312 889.617188 801.171875 C 890.519531 780.019531 891.867188 758.421875 892.769531 737.269531 M 886.917969 2922.46875 C 877.46875 2913.46875 863.066406 2912.570312 850.46875 2909.871094 C 815.367188 2902.21875 783.867188 2879.269531 765.867188 2848.21875 C 756.867188 2832.46875 746.519531 2812.21875 728.066406 2813.570312 C 742.917969 2881.96875 809.519531 2935.96875 879.71875 2935.96875 C 881.96875 2931.46875 884.667969 2926.96875 886.917969 2922.46875 M 670.019531 2573.269531 C 679.917969 2557.96875 688.019531 2541.769531 694.316406 2524.671875 C 697.019531 2517.46875 698.816406 2508.921875 695.21875 2502.171875 C 693.417969 2498.121094 689.367188 2494.96875 685.769531 2492.269531 C 664.167969 2476.519531 643.019531 2460.769531 621.417969 2445.019531 C 619.167969 2462.121094 630.417969 2477.421875 639.417969 2491.820312 C 654.269531 2516.570312 665.066406 2544.46875 670.019531 2573.269531 M 2219.371094 2289.320312 C 2214.421875 2285.71875 2212.621094 2278.519531 2215.769531 2273.570312 C 2209.019531 2267.269531 2197.769531 2269.96875 2191.921875 2276.71875 C 2185.621094 2283.46875 2183.820312 2292.921875 2182.019531 2301.46875 C 2178.871094 2317.671875 2176.171875 2335.21875 2182.019531 2350.96875 C 2188.320312 2366.269531 2207.21875 2377.519531 2222.070312 2369.421875 C 2235.570312 2362.21875 2236.921875 2341.96875 2229.269531 2328.46875 C 2221.621094 2314.96875 2207.671875 2306.871094 2194.621094 2299.21875 C 2202.71875 2295.621094 2210.820312 2292.46875 2219.371094 2289.320312 M 1278.871094 366.46875 C 1283.820312 365.121094 1288.769531 362.871094 1291.019531 358.371094 C 1292.820312 353.421875 1290.121094 346.671875 1285.171875 346.671875 C 1243.769531 346.671875 1207.769531 304.371094 1214.070312 263.871094 C 1208.671875 257.121094 1199.671875 266.570312 1197.871094 274.671875 C 1192.46875 298.96875 1197.421875 325.519531 1212.71875 344.421875 C 1228.46875 363.320312 1255.019531 373.21875 1278.871094 366.46875 M 2022.71875 2477.421875 C 2032.621094 2474.269531 2038.019531 2463.46875 2039.371094 2453.121094 C 2042.519531 2428.820312 2030.371094 2402.71875 2008.769531 2390.121094 C 1999.769531 2404.519531 1994.371094 2420.71875 1993.019531 2437.820312 C 1992.121094 2447.71875 1993.019531 2458.070312 1997.96875 2466.171875 C 2002.921875 2474.71875 2013.71875 2480.570312 2022.71875 2477.421875 M 583.617188 2366.269531 C 567.417969 2363.570312 558.867188 2385.621094 557.96875 2402.269531 C 557.066406 2420.269531 560.667969 2443.671875 578.21875 2446.371094 C 599.816406 2444.121094 606.117188 2415.320312 602.519531 2393.71875 C 600.71875 2382.019531 595.769531 2368.070312 583.617188 2366.269531 M 1655.96875 1931.121094 C 1674.871094 1930.21875 1693.769531 1935.171875 1709.96875 1945.070312 C 1710.421875 1927.070312 1696.019531 1909.96875 1678.019531 1907.269531 C 1660.46875 1904.570312 1641.121094 1916.269531 1636.171875 1933.371094 C 1631.671875 1948.671875 1644.71875 1964.421875 1660.019531 1967.570312 C 1675.320312 1970.71875 1691.070312 1963.96875 1703.671875 1954.96875 C 1688.371094 1950.921875 1673.070312 1946.871094 1658.21875 1943.269531 C 1657.320312 1939.21875 1656.421875 1935.171875 1655.96875 1931.121094 M 944.066406 1914.921875 C 925.167969 1923.921875 921.117188 1953.171875 936.417969 1967.121094 C 951.71875 1981.070312 980.519531 1973.871094 987.71875 1954.070312 C 994.46875 1934.71875 976.917969 1910.871094 956.21875 1911.769531 C 952.167969 1912.21875 947.667969 1913.121094 944.066406 1914.921875 M 2259.871094 2390.570312 C 2267.519531 2409.921875 2299.921875 2409.019531 2308.46875 2390.121094 C 2316.570312 2371.21875 2299.019531 2347.371094 2278.320312 2347.371094 C 2267.519531 2347.371094 2261.21875 2359.519531 2258.96875 2370.320312 C 2257.621094 2377.070312 2257.621094 2384.269531 2259.871094 2390.570312 M 543.117188 2292.46875 C 553.46875 2291.570312 563.367188 2284.820312 566.96875 2275.371094 C 572.367188 2260.96875 562.917969 2242.519531 548.066406 2239.371094 C 533.21875 2235.769531 516.566406 2247.46875 515.21875 2262.769531 C 513.867188 2278.070312 527.816406 2292.921875 543.117188 2292.46875 M 1439.070312 143.269531 C 1440.421875 148.21875 1444.019531 154.070312 1448.96875 152.71875 C 1462.019531 148.21875 1475.519531 141.019531 1481.371094 128.421875 C 1487.671875 115.820312 1482.71875 97.820312 1469.671875 92.871094 C 1458.421875 89.269531 1445.371094 96.921875 1439.96875 107.71875 C 1435.019531 118.519531 1435.921875 131.570312 1439.070312 143.269531 M 2038.46875 2338.371094 C 2024.519531 2338.371094 2013.71875 2355.019531 2019.121094 2368.070312 C 2021.371094 2373.019531 2025.421875 2377.070312 2029.46875 2380.671875 C 2038.019531 2389.21875 2047.019531 2397.769531 2055.570312 2406.320312 C 2060.96875 2393.269531 2066.371094 2379.769531 2064.570312 2365.820312 C 2063.21875 2351.871094 2052.421875 2337.921875 2038.46875 2338.371094 M 2066.820312 2319.921875 C 2077.621094 2315.871094 2079.871094 2302.371094 2079.871094 2290.671875 C 2079.871094 2280.769531 2078.96875 2268.621094 2070.421875 2263.21875 C 2062.320312 2257.820312 2050.621094 2261.421875 2044.769531 2269.070312 C 2038.921875 2276.71875 2038.019531 2287.070312 2039.371094 2296.519531 C 2041.621094 2310.019531 2053.769531 2324.871094 2066.820312 2319.921875 M 2178.871094 2229.46875 C 2179.769531 2234.421875 2182.46875 2238.921875 2185.621094 2242.519531 C 2199.570312 2256.46875 2228.371094 2243.871094 2227.921875 2224.070312 C 2227.46875 2211.019531 2213.96875 2199.320312 2200.921875 2200.671875 C 2187.421875 2202.019531 2176.621094 2215.96875 2178.871094 2229.46875 M 1323.421875 3097.070312 C 1343.21875 3110.121094 1369.769531 3112.820312 1392.269531 3103.820312 C 1369.320312 3092.570312 1349.96875 3073.671875 1339.171875 3050.269531 C 1330.171875 3064.21875 1324.320312 3080.421875 1323.421875 3097.070312 M 2147.820312 2325.320312 C 2138.371094 2318.121094 2124.421875 2320.820312 2116.320312 2328.921875 C 2107.769531 2336.570312 2104.171875 2348.269531 2102.371094 2359.96875 C 2114.519531 2368.070312 2131.621094 2370.769531 2143.769531 2362.671875 C 2155.921875 2354.570312 2159.070312 2334.320312 2147.820312 2325.320312 M 1016.070312 390.320312 C 1032.71875 370.519531 1039.921875 343.070312 1034.96875 317.871094 C 1032.269531 305.71875 1025.519531 292.671875 1013.820312 288.171875 C 1009.769531 296.269531 1010.21875 305.71875 1011.121094 315.171875 C 1012.46875 339.921875 1014.269531 365.121094 1016.070312 390.320312 M 2132.070312 2557.070312 C 2136.121094 2543.570312 2131.171875 2527.820312 2119.921875 2519.71875 C 2114.519531 2515.21875 2106.421875 2512.96875 2101.019531 2517.46875 C 2096.519531 2529.171875 2092.019531 2542.21875 2096.070312 2553.921875 C 2099.671875 2566.070312 2115.421875 2575.070312 2125.320312 2567.421875 C 2128.46875 2564.71875 2130.71875 2560.671875 2132.070312 2557.070312 M 2148.269531 2244.320312 C 2147.820312 2233.519531 2145.121094 2222.71875 2139.71875 2213.269531 C 2127.121094 2212.371094 2113.621094 2219.121094 2109.121094 2230.820312 C 2104.171875 2242.96875 2110.019531 2258.269531 2121.71875 2262.769531 C 2133.871094 2266.820312 2149.171875 2256.921875 2148.269531 2244.320312 M 414.417969 2210.570312 C 412.167969 2206.96875 409.019531 2203.371094 404.96875 2201.570312 C 391.917969 2194.820312 373.917969 2204.269531 371.667969 2218.671875 C 369.867188 2233.070312 384.269531 2247.019531 398.667969 2244.320312 C 413.066406 2242.070312 421.617188 2223.171875 414.417969 2210.570312 M 401.367188 2284.371094 C 395.96875 2298.320312 390.566406 2312.269531 385.167969 2326.21875 C 394.167969 2338.820312 415.769531 2329.820312 421.167969 2315.871094 C 427.019531 2301.46875 423.417969 2285.71875 422.96875 2270.421875 C 415.316406 2263.671875 404.96875 2274.921875 401.367188 2284.371094 M 832.46875 3486.320312 C 835.617188 3491.71875 841.46875 3495.320312 847.769531 3496.671875 C 852.269531 3497.570312 857.21875 3497.121094 861.71875 3494.871094 C 877.917969 3487.21875 876.117188 3457.96875 858.566406 3452.570312 C 841.019531 3447.171875 823.019531 3470.570312 832.46875 3486.320312 M 350.519531 2329.820312 C 352.316406 2317.21875 354.117188 2303.71875 347.367188 2292.46875 C 341.066406 2281.671875 322.617188 2278.070312 316.316406 2288.871094 C 312.71875 2303.269531 314.96875 2318.570312 321.71875 2331.621094 C 331.167969 2331.171875 341.066406 2330.269531 350.519531 2329.820312 M 1528.621094 233.269531 C 1542.570312 237.769531 1558.769531 225.171875 1557.871094 210.769531 C 1557.421875 200.421875 1550.21875 192.320312 1542.570312 185.570312 C 1521.421875 187.820312 1512.421875 219.769531 1528.621094 233.269531 M 2288.671875 2266.820312 C 2289.121094 2251.96875 2276.070312 2234.421875 2263.019531 2241.171875 C 2254.46875 2245.21875 2253.570312 2256.921875 2254.019531 2266.820312 C 2254.46875 2275.371094 2256.71875 2285.71875 2264.820312 2289.320312 C 2276.519531 2294.269531 2287.769531 2279.421875 2288.671875 2266.820312 M 807.269531 3410.71875 C 802.316406 3415.671875 804.117188 3424.671875 809.066406 3429.171875 C 814.46875 3433.671875 821.667969 3435.019531 828.867188 3434.570312 C 841.46875 3434.121094 853.617188 3430.519531 865.769531 3426.46875 C 855.417969 3406.21875 826.167969 3398.121094 807.269531 3410.71875 M 1044.421875 3146.121094 C 1042.171875 3151.96875 1040.371094 3160.519531 1046.21875 3163.21875 C 1069.171875 3146.570312 1082.671875 3117.769531 1080.871094 3089.421875 C 1077.71875 3082.671875 1068.269531 3089.871094 1065.570312 3096.621094 C 1058.371094 3113.269531 1051.621094 3129.46875 1044.421875 3146.121094 M 500.816406 2490.921875 C 502.167969 2482.371094 503.519531 2474.269531 504.867188 2465.71875 C 490.46875 2469.320312 474.71875 2476.96875 469.769531 2491.371094 C 464.367188 2505.769531 478.316406 2525.121094 492.269531 2519.71875 C 497.667969 2511.171875 500.367188 2500.820312 500.367188 2490.921875 M 1028.671875 287.71875 C 1029.570312 289.96875 1030.921875 292.21875 1033.171875 293.121094 C 1038.121094 294.46875 1041.71875 288.171875 1042.621094 283.21875 C 1045.320312 270.621094 1048.46875 258.019531 1051.171875 245.871094 C 1046.21875 233.71875 1025.96875 238.671875 1021.46875 250.820312 C 1017.421875 262.96875 1022.820312 276.019531 1028.671875 287.71875 M 1788.71875 3518.71875 C 1781.519531 3527.269531 1781.519531 3541.21875 1789.171875 3549.320312 C 1796.371094 3557.421875 1810.320312 3559.21875 1819.320312 3552.921875 C 1822.019531 3550.21875 1824.269531 3547.070312 1826.519531 3544.371094 C 1821.570312 3528.621094 1804.921875 3517.371094 1788.71875 3518.71875 M 1824.71875 3479.570312 C 1818.871094 3478.21875 1812.570312 3476.871094 1807.171875 3479.121094 C 1802.21875 3481.371094 1798.621094 3489.019531 1802.671875 3493.519531 C 1810.320312 3501.171875 1819.320312 3509.71875 1830.570312 3510.621094 C 1841.371094 3511.519531 1853.96875 3500.269531 1849.46875 3490.371094 C 1845.871094 3481.820312 1834.171875 3480.46875 1825.171875 3480.019531 M 1544.371094 271.96875 C 1548.421875 280.96875 1559.21875 285.921875 1568.671875 283.671875 C 1576.320312 271.070312 1576.769531 254.421875 1568.671875 241.820312 C 1557.421875 245.871094 1546.171875 250.371094 1534.46875 254.421875 C 1540.769531 258.019531 1544.820312 265.21875 1543.921875 272.421875 M 878.367188 3517.371094 C 873.417969 3525.019531 872.066406 3534.46875 873.867188 3543.019531 C 883.769531 3551.570312 900.867188 3543.019531 903.566406 3530.421875 C 906.269531 3517.820312 898.167969 3504.769531 887.816406 3496.671875 C 884.21875 3503.421875 880.617188 3509.71875 877.019531 3516.46875 M 505.316406 2224.070312 C 516.117188 2226.769531 528.71875 2220.921875 533.21875 2210.570312 C 538.167969 2200.671875 534.566406 2187.171875 525.566406 2180.871094 C 521.96875 2178.171875 516.117188 2176.820312 513.867188 2180.421875 C 507.566406 2193.921875 504.417969 2209.21875 505.316406 2224.070312 M 1845.871094 3439.070312 C 1842.269531 3430.519531 1831.019531 3426.019531 1822.46875 3430.070312 C 1814.371094 3433.671875 1810.320312 3444.921875 1814.371094 3453.46875 C 1825.621094 3459.769531 1839.121094 3462.019531 1852.171875 3460.671875 C 1856.671875 3453.46875 1854.421875 3442.671875 1847.671875 3438.171875 M 1777.921875 3603.769531 C 1786.46875 3604.21875 1795.46875 3604.671875 1804.019531 3605.121094 C 1807.621094 3585.320312 1780.621094 3568.21875 1764.421875 3579.921875 C 1764.421875 3586.21875 1764.421875 3592.070312 1764.421875 3597.921875 C 1768.921875 3599.269531 1773.421875 3601.070312 1777.46875 3602.421875 M 1606.46875 1405.519531 C 1615.46875 1396.070312 1619.070312 1381.21875 1615.019531 1368.621094 C 1596.570312 1369.070312 1581.269531 1388.421875 1584.871094 1406.421875 C 1590.71875 1410.46875 1599.71875 1409.570312 1604.671875 1404.171875 M 1709.519531 861.46875 C 1723.46875 870.46875 1741.921875 856.519531 1747.320312 840.769531 C 1752.269531 827.71875 1751.820312 813.320312 1747.320312 800.269531 C 1742.371094 824.121094 1728.871094 846.621094 1709.519531 861.46875 M 1748.21875 3604.671875 C 1739.671875 3613.21875 1740.570312 3629.421875 1750.46875 3636.621094 C 1759.921875 3644.269531 1775.671875 3641.570312 1781.96875 3630.769531 C 1770.71875 3622.21875 1759.46875 3613.21875 1748.671875 3604.671875 M 986.816406 1379.871094 C 979.617188 1396.070312 1002.121094 1415.421875 1017.421875 1406.421875 C 1021.46875 1390.21875 1001.671875 1378.96875 985.46875 1376.71875 M 945.417969 3568.21875 C 935.066406 3552.921875 906.71875 3557.871094 902.21875 3575.421875 C 914.816406 3582.171875 931.019531 3580.820312 942.269531 3572.71875 M 2127.570312 2301.921875 C 2133.421875 2305.070312 2138.820312 2308.21875 2144.21875 2311.820312 C 2153.21875 2300.570312 2153.671875 2283.921875 2145.570312 2272.21875 C 2137.921875 2276.269531 2132.96875 2284.820312 2132.96875 2293.371094 C 2129.371094 2292.019531 2124.421875 2292.019531 2122.171875 2294.71875 C 2119.921875 2297.871094 2122.621094 2303.71875 2126.21875 2302.371094 M 829.316406 2676.769531 C 823.917969 2657.421875 818.519531 2637.621094 813.117188 2618.269531 C 807.71875 2636.71875 808.617188 2656.96875 815.367188 2674.96875 C 819.417969 2677.671875 824.816406 2678.570312 829.316406 2676.769531 M 850.46875 829.519531 C 852.71875 828.171875 850.019531 824.570312 847.769531 825.019531 C 845.519531 825.921875 844.167969 828.171875 843.71875 830.871094 C 840.566406 842.121094 840.566406 854.269531 844.167969 865.519531 C 856.769531 860.121094 859.46875 840.769531 849.566406 831.769531 M 346.917969 2364.921875 C 349.617188 2361.769531 352.769531 2358.621094 355.917969 2355.921875 C 343.769531 2352.320312 331.167969 2352.320312 319.019531 2355.921875 C 323.96875 2365.820312 337.46875 2370.320312 346.917969 2365.371094 "/>
<path fill-rule="nonzero" fill="rgb(100%, 70.117188%, 50.193787%)" fill-opacity="1" d="M 941.367188 1942.371094 C 948.117188 1935.171875 959.816406 1933.371094 968.816406 1937.421875 C 965.21875 1945.519531 956.667969 1951.371094 947.667969 1950.921875 C 942.269531 1952.269531 937.316406 1945.96875 939.566406 1941.019531 "/>
<path fill-rule="nonzero" fill="rgb(100%, 70.117188%, 50.193787%)" fill-opacity="1" d="M 1187.96875 123.921875 C 1187.519531 132.921875 1180.769531 141.921875 1172.21875 144.621094 C 1169.070312 129.320312 1169.070312 114.019531 1171.769531 98.71875 C 1179.421875 105.019531 1185.269531 114.46875 1187.070312 123.921875 "/>
<path fill-rule="nonzero" fill="rgb(100%, 70.117188%, 50.193787%)" fill-opacity="1" d="M 1388.21875 85.21875 C 1397.21875 90.621094 1399.921875 104.121094 1394.070312 112.671875 C 1388.21875 121.21875 1374.71875 123.019531 1366.621094 116.71875 C 1378.769531 111.320312 1387.320312 98.71875 1387.769531 85.671875 "/>
<path fill-rule="nonzero" fill="rgb(100%, 70.117188%, 50.193787%)" fill-opacity="1" d="M 1341.421875 92.421875 C 1341.421875 80.269531 1347.71875 68.570312 1358.070312 62.269531 C 1358.070312 78.46875 1359.421875 94.671875 1363.019531 110.421875 C 1356.269531 110.871094 1349.519531 110.871094 1344.121094 107.71875 C 1338.269531 104.121094 1335.570312 95.570312 1340.519531 91.070312 "/>
<path fill-rule="nonzero" fill="rgb(100%, 70.117188%, 50.193787%)" fill-opacity="1" d="M 1329.71875 1171.96875 C 1334.671875 1185.921875 1325.21875 1203.019531 1310.820312 1206.621094 C 1296.421875 1190.421875 1297.769531 1162.519531 1313.519531 1147.21875 C 1321.621094 1152.621094 1327.019531 1162.519531 1326.570312 1172.421875 "/>
<path fill-rule="nonzero" fill="rgb(100%, 70.117188%, 50.193787%)" fill-opacity="1" d="M 785.21875 2293.820312 C 778.46875 2286.171875 780.71875 2272.671875 789.71875 2267.71875 C 799.617188 2283.921875 809.519531 2300.121094 819.867188 2316.769531 C 805.46875 2319.921875 789.71875 2309.121094 787.46875 2294.71875 "/>
<path fill-rule="nonzero" fill="rgb(100%, 70.117188%, 50.193787%)" fill-opacity="1" d="M 1243.320312 1582.371094 C 1241.519531 1579.671875 1244.21875 1576.070312 1246.921875 1574.269531 C 1274.371094 1554.019531 1313.070312 1551.769531 1342.769531 1567.96875 C 1309.46875 1571.570312 1276.171875 1576.519531 1243.320312 1582.371094 "/>
<path fill-rule="nonzero" fill="rgb(100%, 70.117188%, 50.193787%)" fill-opacity="1" d="M 1373.820312 354.320312 C 1394.96875 324.171875 1405.320312 286.820312 1402.621094 249.921875 C 1416.570312 269.269531 1427.820312 292.671875 1424.21875 316.519531 C 1420.621094 339.921875 1396.769531 361.519531 1373.820312 354.320312 "/>
<path fill-rule="nonzero" fill="rgb(100%, 70.117188%, 50.193787%)" fill-opacity="1" d="M 1319.371094 2881.96875 C 1320.71875 2880.621094 1322.519531 2879.269531 1324.320312 2879.71875 C 1334.21875 2880.621094 1340.96875 2890.519531 1344.570312 2899.519531 C 1353.121094 2919.769531 1353.121094 2948.570312 1332.871094 2956.21875 C 1316.21875 2962.519531 1297.769531 2945.871094 1296.421875 2928.320312 C 1295.070312 2910.320312 1305.871094 2894.121094 1319.371094 2881.96875 M 1319.820312 2914.371094 C 1314.871094 2923.371094 1324.320312 2936.421875 1334.21875 2933.71875 C 1342.320312 2924.71875 1329.269531 2907.621094 1318.46875 2913.019531 "/>
<path fill-rule="nonzero" fill="rgb(100%, 70.117188%, 50.193787%)" fill-opacity="1" d="M 1341.421875 1632.320312 C 1308.121094 1624.21875 1273.019531 1632.769531 1240.171875 1641.769531 C 1227.570312 1644.921875 1214.96875 1648.519531 1201.921875 1651.671875 C 1251.421875 1601.71875 1338.71875 1595.871094 1394.519531 1638.621094 C 1377.871094 1646.269531 1358.96875 1636.820312 1341.421875 1632.320312 "/>
<path fill-rule="nonzero" fill="rgb(100%, 70.117188%, 50.193787%)" fill-opacity="1" d="M 900.867188 2368.96875 C 891.867188 2368.519531 882.867188 2365.820312 875.667969 2360.421875 C 859.019531 2348.269531 856.316406 2323.519531 864.417969 2304.621094 C 873.417969 2283.46875 895.46875 2268.171875 918.417969 2268.621094 C 941.367188 2269.070312 962.96875 2287.070312 966.117188 2310.019531 C 971.066406 2343.320312 934.617188 2372.121094 900.867188 2368.96875 M 909.417969 2310.921875 C 909.417969 2315.421875 909.417969 2319.921875 909.417969 2324.421875 C 913.019531 2326.671875 917.066406 2328.46875 920.667969 2330.71875 C 923.816406 2328.019531 926.519531 2324.871094 929.667969 2322.171875 C 932.367188 2326.671875 937.316406 2330.269531 942.71875 2331.171875 C 948.117188 2319.921875 946.316406 2304.171875 935.96875 2296.96875 C 925.167969 2290.21875 907.167969 2298.320312 908.519531 2310.921875 "/>
<path fill-rule="nonzero" fill="rgb(100%, 70.117188%, 50.193787%)" fill-opacity="1" d="M 1220.820312 1725.46875 C 1206.421875 1729.96875 1192.019531 1734.46875 1177.171875 1738.96875 C 1187.070312 1716.019531 1213.621094 1705.671875 1237.921875 1699.820312 C 1272.121094 1691.269531 1308.121094 1687.671875 1342.769531 1694.871094 C 1377.421875 1702.519531 1410.269531 1721.871094 1428.71875 1752.019531 C 1410.71875 1744.820312 1392.269531 1737.171875 1374.269531 1729.96875 C 1353.570312 1721.421875 1332.421875 1712.871094 1310.371094 1710.621094 C 1280.21875 1707.46875 1250.070312 1716.46875 1220.820312 1725.46875 "/>
<path fill-rule="nonzero" fill="rgb(100%, 70.117188%, 50.193787%)" fill-opacity="1" d="M 1618.171875 1143.171875 C 1633.921875 1152.171875 1649.671875 1161.171875 1665.421875 1169.71875 C 1682.96875 1179.621094 1703.21875 1194.46875 1700.519531 1214.269531 C 1673.519531 1197.171875 1645.621094 1181.421875 1616.820312 1167.019531 C 1607.371094 1162.070312 1597.46875 1157.570312 1587.121094 1156.21875 C 1564.621094 1154.421875 1544.371094 1168.820312 1526.371094 1183.21875 C 1504.769531 1200.320312 1482.71875 1217.421875 1461.121094 1234.519531 C 1453.921875 1222.371094 1463.820312 1207.070312 1473.71875 1197.171875 C 1495.769531 1174.671875 1520.96875 1155.320312 1548.421875 1140.019531 C 1557.871094 1134.621094 1567.320312 1130.121094 1577.671875 1129.21875 C 1592.070312 1128.769531 1605.570312 1135.96875 1618.171875 1143.171875 "/>
<path fill-rule="nonzero" fill="rgb(100%, 70.117188%, 50.193787%)" fill-opacity="1" d="M 1443.121094 1861.371094 C 1417.019531 1833.019531 1383.269531 1811.421875 1346.820312 1799.71875 C 1332.421875 1794.769531 1317.121094 1791.621094 1301.820312 1790.71875 C 1255.019531 1788.019531 1210.46875 1807.820312 1168.171875 1827.171875 C 1162.320312 1821.320312 1169.070312 1811.871094 1175.820312 1807.371094 C 1245.570312 1757.421875 1348.171875 1760.121094 1415.21875 1812.769531 C 1430.519531 1824.921875 1444.921875 1842.019531 1443.121094 1861.371094 "/>
<path fill-rule="nonzero" fill="rgb(100%, 70.117188%, 50.193787%)" fill-opacity="1" d="M 1301.371094 1324.070312 C 1303.621094 1321.820312 1306.769531 1320.019531 1309.46875 1320.46875 C 1313.070312 1320.46875 1316.21875 1322.71875 1318.921875 1324.96875 C 1352.671875 1353.769531 1368.421875 1409.570312 1338.71875 1442.421875 C 1330.621094 1451.871094 1318.46875 1458.621094 1306.320312 1457.269531 C 1295.519531 1456.371094 1286.519531 1449.171875 1280.21875 1441.070312 C 1253.671875 1406.421875 1270.769531 1354.21875 1301.371094 1324.070312 M 1294.171875 1369.96875 C 1296.421875 1360.519531 1311.269531 1358.71875 1318.019531 1365.921875 C 1325.21875 1372.671875 1326.570312 1383.46875 1326.570312 1393.371094 C 1326.121094 1410.46875 1320.71875 1431.171875 1304.070312 1434.320312 C 1300.46875 1435.21875 1296.871094 1435.21875 1294.171875 1437.019531 C 1291.46875 1438.820312 1291.019531 1444.21875 1294.171875 1445.121094 C 1318.46875 1446.921875 1340.070312 1423.519531 1341.871094 1399.21875 C 1343.671875 1374.921875 1330.171875 1351.070312 1312.171875 1334.871094 C 1300.019531 1341.621094 1292.371094 1356.019531 1294.171875 1369.96875 M 1313.519531 1406.421875 C 1314.871094 1398.769531 1316.21875 1391.121094 1312.621094 1384.371094 C 1309.46875 1377.621094 1300.46875 1373.570312 1294.621094 1378.070312 C 1282.019531 1392.019531 1288.769531 1418.121094 1306.769531 1423.96875 C 1309.019531 1417.671875 1311.269531 1411.820312 1313.070312 1405.96875 "/>
<path fill-rule="nonzero" fill="rgb(100%, 70.117188%, 50.193787%)" fill-opacity="1" d="M 1371.570312 1261.070312 C 1358.96875 1281.769531 1333.769531 1293.921875 1309.46875 1292.121094 C 1285.171875 1290.320312 1262.671875 1274.570312 1252.320312 1252.519531 C 1239.71875 1226.871094 1243.769531 1195.820312 1256.371094 1169.71875 C 1268.519531 1144.070312 1287.871094 1122.921875 1307.21875 1101.769531 C 1309.46875 1099.070312 1313.070312 1096.371094 1316.21875 1097.71875 C 1317.121094 1098.621094 1318.019531 1099.519531 1318.921875 1100.421875 C 1323.421875 1106.269531 1327.921875 1112.121094 1332.421875 1117.96875 C 1349.070312 1138.671875 1365.71875 1159.820312 1374.71875 1184.570312 C 1384.171875 1209.320312 1385.519531 1238.570312 1371.570312 1261.070312 M 1305.871094 1131.46875 C 1287.871094 1154.871094 1269.421875 1179.621094 1266.71875 1208.871094 C 1264.46875 1238.121094 1285.621094 1270.96875 1314.871094 1269.621094 C 1345.921875 1268.269531 1363.019531 1230.019531 1357.621094 1198.96875 C 1352.21875 1168.371094 1331.96875 1142.71875 1318.46875 1114.820312 C 1314.421875 1120.21875 1309.921875 1126.070312 1305.871094 1131.46875 "/>
</svg>
